<?xml version="1.0" encoding="UTF-8"?>
<svg id="Layer_1" xmlns="http://www.w3.org/2000/svg" viewBox="0 0 2000 1454">
  <defs>
    <style>
      .cls-1 {
        fill: #dfdfdf;
      }

      .cls-2 {
        fill: #474747;
      }

      .cls-3 {
        fill: #1b1b1b;
      }

      .cls-4 {
        fill: #323232;
      }

      .cls-5 {
        fill: #545454;
      }

      .cls-6 {
        fill: #a7a7a7;
      }

      .cls-7 {
        fill: #e3e3e3;
      }

      .cls-8 {
        fill: #a2a2a2;
      }

      .cls-9 {
        fill: #b6b6b6;
      }

      .cls-10 {
        fill: #f6f6f6;
      }

      .cls-11 {
        fill: #b5b5b5;
      }

      .cls-12 {
        fill: #f4f4f4;
      }

      .cls-13 {
        fill: #979797;
      }

      .cls-14 {
        fill: #c1c1c1;
      }

      .cls-15 {
        fill: #a5a5a5;
      }

      .cls-16 {
        fill: #3b3b3b;
      }

      .cls-17 {
        fill: #4f4f4f;
      }

      .cls-18 {
        fill: #3e3e3e;
      }

      .cls-19 {
        fill: #3a3a3a;
      }

      .cls-20 {
        fill: #c3c3c3;
      }

      .cls-21 {
        fill: #525252;
      }

      .cls-22 {
        fill: #c4c4c4;
      }

      .cls-23 {
        fill: #9b9b9b;
      }

      .cls-24 {
        fill: #373737;
      }

      .cls-25 {
        fill: #c6c6c6;
      }

      .cls-26 {
        fill: #a6a6a6;
      }

      .cls-27 {
        fill: #e7e7e7;
      }

      .cls-28 {
        fill: #505050;
      }

      .cls-29 {
        fill: #212121;
      }

      .cls-30 {
        fill: #969696;
      }

      .cls-31 {
        fill: #b7b7b7;
      }

      .cls-32 {
        fill: #f9f9f9;
      }

      .cls-33 {
        fill: #a3a3a3;
      }

      .cls-34 {
        fill: #272727;
      }

      .cls-35 {
        fill: #fafafa;
      }

      .cls-36 {
        fill: #dedede;
      }

      .cls-37 {
        fill: #515151;
      }

      .cls-38 {
        fill: #b8b8b8;
      }

      .cls-39 {
        fill: #c5c5c5;
      }

      .cls-40 {
        fill: #fefefe;
      }

      .cls-41 {
        fill: #f7f7f7;
      }

      .cls-42 {
        fill: #4a4a4a;
      }

      .cls-43 {
        fill: #1f1f1f;
      }

      .cls-44 {
        fill: #383838;
      }

      .cls-45 {
        fill: #f5f5f5;
      }

      .cls-46 {
        fill: #dbdbdb;
      }

      .cls-47 {
        fill: #202020;
      }

      .cls-48 {
        fill: #8c8c8c;
      }

      .cls-49 {
        fill: #494949;
      }

      .cls-50 {
        fill: #c2c2c2;
      }

      .cls-51 {
        fill: #434343;
      }

      .cls-52 {
        fill: #a4a4a4;
      }

      .cls-53 {
        fill: #fcfcfc;
      }

      .cls-54 {
        fill: #a9a9a9;
      }

      .cls-55 {
        fill: #2e2e2e;
      }

      .cls-56 {
        fill: #fbfbfb;
      }

      .cls-57 {
        fill: #bfbfbf;
      }

      .cls-58 {
        fill: #fdfdfd;
      }

      .cls-59 {
        fill: #4c4c4c;
      }

      .cls-60 {
        fill: #4d4d4d;
      }
    </style>
  </defs>
  <path class="cls-20" d="M1243.5,1160.5c.1-83.4.3-166.7.4-250.1,0-5,.2-10,0-15-.4-9,3.8-13,12.8-12.7,7.1.2,14.3.7,21.2-.3,4.5-.6,8.8-3.5,13.1-5.4,4.7,11.5,10,3.7,15.1.4,10.4,8.7,25.2,7.4,32.4-2.9,1.6,9.5,8.9,7.8,15.3,8,11.6,0,23.1,0,34.7.1,7,.1,11-2.7,10.8-10.1,1.7,10,8.9,12.3,17.6,12.3,4,18.1,5.4,35.4-11.4,49-3.6,2.9-5.4,9.1-6.1,14.1-1,6.9-.4,14.2-.3,21.3.4,31.7-4.7,28.4,30.2,28.5.8,0,2,.3,2.4-.1,3.3-3.3,9-6.5,9.3-10.1,1.1-12.8.9-25.9.2-38.8-.3-4.6-2.3-10.6-5.6-13.1-14.2-10.5-14.6-24.8-14.1-40.3.3-8.9,3.3-12.5,12.4-13.1,4.6-.3,8.9-4.9,13.3-7.6,16.7,8.7,15.2,24.1,14.6,39.2-.1,2.9,0,5.8,0,8.7-.8,4-1.7,8.1-2.4,12.1-5.1,28.2-7.5,57.1-15.8,84.3-9.5,31-24,60.5-46.7,84.8-31.1,33.2-67.6,54.9-114.7,54.7-12,0-24,1.4-36,2.1-.9,0-1.9-.1-2.8-.2Z"/>
  <path class="cls-37" d="M1138.6,648.9c36.2,9.6,72.4,18.9,108.4,29,8.5,2.4,12.7.4,17.2-6.8,28.7-46.6,58.2-92.7,86.4-139.6,6.8-11.3,14.4-14,26.5-12.6,18.8,2.2,37.7,3.2,56.6,4.7,10.8.9,21.8,1.1,32.4,2.8,3.9.6,7.2,4.9,10.7,7.4-4.1,2.3-8.4,6.9-12.4,6.7-28.4-1.5-56.7-3.9-85-6.4-8.5-.8-13.5,1.8-18.1,9.3-85.7,138.1-171.8,276-257.8,413.9-1.7,2.8-3.3,5.7-5.8,9.9,10.4,3,20,5.4,29.3,8.4,28.1,9,42.1,25.2,43.6,50.2,1.8,29.2-12.6,57.2-38.1,66-13.8,4.7-31.1,6.4-45.1,2.7-143.8-37.5-287.3-76.3-430.9-114.7-33-8.8-66-17.7-99.1-26.6-3.2-.9-6.8-1.3-9.5-3-2.1-1.4-4.3-4.7-4.1-6.8.2-2.1,3.4-5.1,5.5-5.4,4.4-.5,9.1,0,13.4,1.3,32.3,9.2,64.3,19.1,96.7,27.8,28.9,7.7,58.2,13.7,87.2,21.3,61.8,16.3,123.4,33.3,185,49.8,48.1,12.9,96.2,25.6,144.3,38.5,7.2,1.9,14,6.5,21.1,6.9,8.6.5,17.9-.8,25.9-3.9,23.4-9.1,36.1-32.9,32-57.7-2.7-16.3-13.7-25.9-28.5-30.3-34-10-68.4-19.1-102.6-28.3-109.7-29.4-219.4-58.7-329.1-88.1q-19.4-5.2-18-25.5c.7-4.9,1.9-9.8,1.9-14.8.1-58.5,0-117,0-175.5v-59.2c-.5,0-1,0-1.5,0v59.4c-.4,5.1-.8,10.1-1.2,15.2-.7-45.9-1.5-91.8-2.2-137.6-.1-10.1,5.4-11.6,14.1-9.2,37.8,10.3,75.6,20.3,113.4,30.4,35,9.3,69.9,18.7,104.9,28,10.3,2.7,20.6,5.4,30.9,8.1,13.3,3.6,26.4,7.6,39.8,10.8,13.3,3.2,26.8,5.6,40.1,8.3,13.6,4.3,27.2,8.6,40.8,12.9,26.8,7.5,53.6,14.9,80.3,22.4ZM789.3,845.9l.6,13.6c-.4,5.4-1.8,11-.9,16.1.7,3.9,3.7,9.6,6.8,10.5,24.4,7,49,13,73.6,19.3,6.6.4,13.3.7,19.9,1.1,1.9,1.9,3.9,3.7,5.8,5.6,15,4.2,30,8.4,45.1,12.6,9.9,2.6,19.9,5.1,29.8,7.7,11.4,1.7,22.8,3.3,34.3,5,1.9,1.7,3.9,3.5,5.8,5.2,15.9,4.7,31.7,9.8,47.7,14.1,23.5,6.4,24,6.5,36.4-14.3,7.1-11.9,12.4-24.8,18.5-37.3,3.4-2.8,6.8-5.7,10.2-8.5,13.1-21,26.3-42,38.3-61.2-4.5-5.5-7.8-9.4-11-13.4,6.9-.7,17.3,1.2,20-2.5,13.4-18.4,24.8-38.2,37.1-57.9-2.9-1.7-4.9-3-7-4.3,2.7-1.7,5.4-3.4,8.1-5.1,2.2-1,5.3-1.4,6.3-3.1,11.4-17.8,22.5-35.8,34.8-55.5-20.6-5.3-39.4-10.2-58.2-15.1-11.9-3.3-24-6-35.6-10.1-10.5-3.7-18.1-2.7-22.3,8.6-1.8-1.8-3.5-3.6-5.3-5.5,3.2-7,.9-10.4-6.6-12.2-25.5-6.4-50.9-13.3-76.3-20-7.3-2-14.6-3.9-21.9-5.9-13.2-3.6-26.6-7-39.7-11-7.3-2.2-11.1.5-13.3,7-1.7-2.7-3.4-5.3-5-8-2.9-2.1-5.4-5.2-8.6-6-27.2-7.4-54.6-14.4-81.9-21.6-19.4-5.4-38.8-10.8-55.4-15.4-5.5,4.4-8.8,7.1-12.1,9.8-1.2-6,.9-13-8.7-15.4-34.3-8.6-68.3-18.1-102.4-27.1-1.8-.5-3.8,0-6.7,0,0,19.3.4,37.9-.2,56.6-.3,8.2,3,11.8,10.4,14.1,3,.9,5,5,7.5,7.7-5.7-.8-11.4-1.7-17-2.5-1.1,12.1-3.1,24.2-3.1,36.3,0,12.9,1.8,25.9,2.9,38.8,3.1,1.6,6.3,3.2,9.4,4.9-.9,1.7-1.7,3.5-2.6,5.2-2.4,0-4.7,0-7.1.1-1.4,21.3-2.7,42.6-4.1,64,.9,0,1.8,0,2.7.1.5-9.9.9-19.8,1.4-29.6.5,10,.6,20,1.8,29.9.5,3.8,3.4,7.4,5.2,11,.1.5.3,1,.4,1.6-.9,2.8-1.8,5.5-2.7,8.3-.9,19.8-2,39.7-2.2,59.5,0,2.9,4.1,7.6,7.1,8.5,21.6,6.2,43.5,11.5,65.3,17.2,4.5,1.5,9,3,15.1,5,.9-10.4,1-19.1,2.7-27.5.6-3.3,4.5-6,6.9-9Z"/>
  <path class="cls-20" d="M1286.5,403.3c-15.4-7.9-17.3-11.5-13.3-27.6,5.3-21,10.6-42.1,17-62.8,1.9-6.2,6.4-12.8,11.7-16.5,38-26.5,76.4-52.4,114.8-78.4,11.3-7.7,16.7-7.1,24.2,3.7,17.6,25.4,35.2,50.8,52.2,76.6,9.9,15.1,8.9,18-5.3,28.7-3.2,2.4-5.6,5.9-8.4,8.9-4.9,2.1-10.2,3.6-14.6,6.5-27.4,18.4-54.6,37-81.7,55.7-9.8,6.8-19.8,12.2-32.4,10.2-15.7-2.4-31.4-4.4-47.1-6-5.6-.6-11.3.6-17,1ZM1391.6,320.7c4.4-12.5,8.7-25,13.1-37.5-1.6-.6-3.2-1.2-4.8-1.9-9.4,21.9-18.9,43.8-28.3,65.7,1.6.7,3.1,1.5,4.7,2.2,5.2-9.6,10.3-19.2,15.5-28.7,1,3.6.8,8.8,3.1,10.5,5.5,4,12.5,8.9,18.5,8.6,4.5-.3,11.4-7.8,12.1-12.8.7-5.1-3.6-13.9-8-15.9-5.1-2.3-13,.5-19.2,2.4-2.7.8-4.4,4.8-6.6,7.3ZM1383.8,306.2c-.3-9.2-7.9-16.2-17.4-15.5-9.7.7-15.3,6.3-15.7,16-.4,8.9,8,16.5,16.9,16.3,9.5-.2,16.6-7.5,16.3-16.8ZM1322.6,371.7c-7.5-4.9-11.5-9.5-15.7-9.6-3.2,0-6.6,5.5-9.8,8.5,3.5,3.3,6.7,8.4,10.7,9.2,3.2.7,7.5-3.9,14.8-8.2Z"/>
  <path class="cls-20" d="M1509.8,954.9c2.6-3.1,6.5-5.9,7.6-9.5,7.6-24.4,26.9-39.9,50.1-39.6,22.1.3,40.5,15,47.1,39.4,2.6,9.5,8.3,10.7,15.7,9.9,10.5-1,15.5,3.2,15.8,13.8.2,9.5,1,19.1,1.6,28.6-2.6,6.5-4.7,13.3-8,19.4-23.6,44.8-59.4,75.2-108.1,89.3-6.5,1.9-14.6-2-22-3.2,0-49.4.1-98.9.2-148.3ZM1565.8,955.3s0,0,0,0c9.2,0,18.3,0,27.5,0,8.1-.1,9.8-4.7,7.8-11.7-3.7-13.4-19.1-24.5-34.3-24.5-15.2,0-31.6,11.8-35.4,25.2-2.2,7.6.3,11.2,8.2,11.2,8.7,0,17.5,0,26.2,0Z"/>
  <path class="cls-9" d="M1509.6,1103.2c7.4,1.2,15.5,5,22,3.2,48.7-14.1,84.6-44.5,108.1-89.3,3.2-6.2,5.3-12.9,8-19.4,2.2,21.5,4.7,42.9,6.7,64.4,3,32.8,5.6,65.5,8.4,98.3-51,0-102.1.1-153.1.2-.1-.7-.2-1.3-.4-2,0-18.5.1-36.9.2-55.4Z"/>
  <path class="cls-21" d="M436.1,1173.2c-6.7-5.8-4.4-10,2.8-12,3.9-1.1,8.3-.4,12.5-.4,171.9,0,343.8,0,515.7,0,5.2,0,10.3-1.4,15.5-2.2,5.3,0,10.6.1,15.9.2,4.4.7,8.7,2,13.1,2,41.6.2,83.1,0,124.7.2,7.1,0,17.5-.6,9.2,12.1-5.3-.7-10.6-1.9-16-1.9-225.8,0-451.7,0-677.5,0-5.3,0-10.6,1.4-15.9,2.1Z"/>
  <path class="cls-52" d="M1509.6,1103.2c0,18.5-.1,36.9-.2,55.4-6.6-5.9-13.3-11.8-19.9-17.7-1.7-7.6-4.8-15.2-4.8-22.8-.6-73.9-.9-147.7-.8-221.6,0-2.9,4.1-6.8,7.2-8.6,2.7-1.5,6.8-.8,13-1.2-15.2-1.6-27.4-3-39.7-4.3,7.9.1,15.8.4,23.8.4q21.4,0,21.4,20.8c0,17.1.2,34.2.2,51.3,0,49.4-.1,98.8-.2,148.3Z"/>
  <path class="cls-23" d="M1464.4,882.4c12.3,1.3,24.5,2.7,39.7,4.3-6.2.4-10.3-.3-13,1.2-3.1,1.8-7.2,5.6-7.2,8.6-.1,73.9.1,147.7.8,221.6,0,7.6,3.1,15.2,4.8,22.8-5.3,2.6-10.8,4.9-15.8,8-4.3,2.7-7.9,6.4-11.8,9.6,0-78.6,0-157.2-.1-235.8,0-2.9,0-5.8,0-8.7.6-15.1,2.1-30.6-14.6-39.2-.2-2.3-.5-4.5-.7-6.8,9,5.2,10.1-2.5,12.5-7.8,1.8,7.4,3.5,14.8,5.3,22.3Z"/>
  <path class="cls-52" d="M1286.5,403.3c5.7-.4,11.4-1.6,17-1,15.8,1.6,31.5,3.7,47.1,6,12.7,1.9,22.6-3.4,32.4-10.2,27.1-18.7,54.3-37.4,81.7-55.7,4.4-2.9,9.7-4.4,14.6-6.5,3.6,12,7,24,10.8,35.9,3,9.5-.2,15.7-9.4,18.4-43.9,13.1-87.8,26.2-131.9,38.8-4.6,1.3-10.8,0-15.4-2.1-15.9-7.3-31.3-15.6-47-23.4Z"/>
  <path class="cls-28" d="M1509.8,1160.6c51,0,102.1-.1,153.1-.2,13.2.1,26.4,0,39.6.5,9.1.4,10.2,3.7,5.1,12.3-4.5-.7-8.9-2.1-13.4-2.1-167.9,0-335.8,0-503.7,0-4.1-10,3-10.1,9.3-10.3,14.5-.3,29.1-.2,43.6-.3.9,0,1.9.1,2.8.2,71.8,0,143.6-.1,215.3-.2,16.1,0,32.1,0,48.2.1Z"/>
  <path class="cls-15" d="M1045.4,603.8c16.4-32.3,40.7-55.8,75.6-67.2,48.5-15.8,76.9,5.9,74.6,57-8.5-14.1-19.4-24.5-37.1-24.7,4.5-15.3.5-20.5-15.4-19.4-4.1.3-8,1.4-12.1,2.1-27.1,8.9-45.4,28.9-62.8,49.9-3.6,4.1-7.1,8.2-10.7,12.4-4.1-3.4-8.1-6.7-12.2-10.1Z"/>
  <path class="cls-15" d="M914.9,516.2c19.7-41,55.1-47.2,87.1-14.8,27.4,27.7,39,61.5,35.9,100.3-4.5,1.6-9,3.2-13.5,4.8-2.3-9.9-4.5-19.8-6.8-29.7-3.7-12.2-6.7-24.8-11.2-36.7-5.7-14.9-13.4-28.5-28.8-35.8-14.3-5.2-18.2-2.5-17.9,12.2,0,2.5.2,5,.3,7.4-5.7-4.6-11.1-12.3-17.2-12.9-9-.9-18.5,3.3-27.8,5.3Z"/>
  <path class="cls-15" d="M1138.6,648.9c-26.8-7.5-53.6-14.9-80.3-22.4,1.1-3.9,2.2-7.8,3.3-11.7,21.5-7.6,42.9-15.2,64.4-22.8,3.2,1.9,6.3,4,9.7,5.6,20.2,9,25.5,19.9,20.2,41.6-5.8,3.3-11.5,6.5-17.3,9.8Z"/>
  <path class="cls-26" d="M1017.5,613.6c-13.4-2.8-26.9-5.2-40.1-8.3-13.4-3.2-26.5-7.2-39.8-10.8-4.2-6-8.3-12-12.5-18,9.4-23.1,15.6-26.9,40.3-24.9,3.2.3,6.5.1,9.8.2,15.3,18.2,30.6,36.4,45.9,54.6-1.2,2.4-2.4,4.7-3.6,7.1Z"/>
  <path class="cls-21" d="M998.5,1158.6c-5.3,0-10.6-.1-15.9-.2-20.9-8.5-29.8-21.7-28.2-41.7,1.3-15.3,12.4-29.6,27.1-32.1,23.6-4,40.5,2.3,47.8,27.1,6.4,21.7-6.8,41-30.8,47ZM992.1,1144.2c12.8,0,23-9.9,23.3-22.7.3-12.7-9.7-23.3-22.3-23.6-13.1-.3-24.4,10.5-24.2,23.2.1,12.4,10.8,23,23.2,23Z"/>
  <path class="cls-21" d="M712.9,1035.9c0,21.8-15.7,37.8-37.7,38.1-21.6.3-38.4-15.8-38.8-37.3-.4-21.4,17.3-39.3,38.7-39.1,21.4.1,37.8,16.7,37.9,38.3ZM675.5,1012.9c-12.8-.3-23.2,9.5-23.8,22.2-.6,12.9,10.3,24.4,23.1,24.4,12,0,23.3-11.1,23.5-23.1.2-12.3-10.5-23.3-22.8-23.6Z"/>
  <path class="cls-50" d="M975.1,551.8c-3.3,0-6.5,0-9.8-.2-24.7-2.1-30.9,1.7-40.3,24.9-14.8-18.2-20.4-37.9-10.1-60.3,9.3-2,18.8-6.2,27.8-5.3,6.1.6,11.5,8.4,17.2,12.9,5.1,9.3,10.2,18.6,15.2,27.9Z"/>
  <path class="cls-20" d="M1155.8,639.1c5.3-21.8,0-32.6-20.2-41.6-3.4-1.5-6.5-3.7-9.7-5.6,10.9-7.6,21.7-15.3,32.6-22.9,17.7.2,28.6,10.6,37.1,24.7-4,23.2-19,36.8-39.7,45.4Z"/>
  <path class="cls-22" d="M1293.8,864.9c6.7-28.5,38.6-49.3,68.2-44.2,5.8,1,11.4,2.7,17.1,4,10.1,4.1,20.3,8.2,30.4,12.3-7.5.2-9.4,2.6-5,9.6,4,6.5,6.5,13.9,9.7,20.9-5.1,0-10.2,0-15.3,0-7.1-8.9-10.2-22.1-24.7-22.8-5.7-2.4-11.4-4.8-17.1-7.3-26.5-2.2-41.3,12.5-50.4,35.2-4.2-2.6-8.5-5.2-12.7-7.8Z"/>
  <path class="cls-3" d="M436.1,1173.2c5.3-.7,10.6-2.1,15.9-2.1,225.8-.1,451.7-.1,677.5,0,5.3,0,10.6,1.2,16,1.9-5,.3-9.9,1-14.9,1-226.9,0-453.8,0-680.8,0-4.6,0-9.1-.5-13.7-.7Z"/>
  <path class="cls-15" d="M1409.4,837c-10.1-4.1-20.3-8.2-30.4-12.3,33.4-12.1,67.9,3.2,80.1,35.4-2.5,5.3-3.5,13-12.5,7.8-8.5-15-18.9-27.7-37.2-30.9Z"/>
  <path class="cls-3" d="M1190.5,1171.1c167.9,0,335.8,0,503.7,0,4.5,0,8.9,1.4,13.4,2.1-3.7.2-7.5.7-11.2.7-163.6,0-327.1,0-490.7-.1-5.1,0-10.1-1.8-15.2-2.7Z"/>
  <path class="cls-44" d="M643.8,700.7c.6,46.2,1.3,92.4,0,138.6-1.8,0-3.6,0-5.4,0v-138.4c1.8,0,3.6-.1,5.5-.2Z"/>
  <path class="cls-1" d="M1554.7,501.1c-5.1-4.8-12.5-11.8-16.9-15.9,6.7-7.5,13.4-15.2,18.8-21.2,5.1,6.4,11.4,14.3,17.7,22.2,1.2-1.9,2.3-3.9,3.5-5.8-7.6,6.8-15.1,13.6-23,20.7Z"/>
  <path class="cls-1" d="M437,892.5c-7.3,5.3-14.6,10.7-22,16,1.3,1.5,2.6,2.9,3.9,4.4-5.6-7.6-11.1-15.1-15.2-20.6,3.3-3.3,9.6-9.6,16-15.9,5,4.7,11.5,10.8,17.2,16.1Z"/>
  <path class="cls-17" d="M323.3,1173c-6-6.2-4-11.4,3.6-11.8,21.5-.9,43-.7,64.5,0,2.4,0,4.6,6.2,6.9,9.5-9.5,0-18.9,0-28.4.2-15.5.5-31.1,1.3-46.6,2Z"/>
  <path class="cls-18" d="M1017.5,613.6c1.2-2.4,2.4-4.7,3.6-7.1,1.1,0,2.2,0,3.4,0,4.5-1.6,9-3.2,13.5-4.8,2.5.7,5,1.5,7.4,2.2,4.1,3.4,8.1,6.7,12.2,10.1,1.3.3,2.6.5,4,.8-1.1,3.9-2.2,7.8-3.3,11.7-13.6-4.3-27.2-8.6-40.8-12.9Z"/>
  <path class="cls-54" d="M576.4,498.5c-6.9-.3-13.2,0-19.2-1.1-2.5-.4-4.4-3.9-6.6-5.9,2-1.7,4-4.8,6.1-4.9,12.8-.4,25.7-.4,38.5,0,2,0,3.9,3.3,5.8,5.1-1.8,2-3.4,5.3-5.5,5.6-6.5,1-13.2.9-19.1,1.2Z"/>
  <path class="cls-29" d="M607.9,624.1c1,27.5.8,55.1.9,82.7-1.9,0-3.8,0-5.7,0v-82.7c1.6,0,3.2,0,4.8,0Z"/>
  <path class="cls-6" d="M582.8,419.7c2.3,1.2,4.4,1.7,5.8,3.1,8.3,8.1,16.8,16,24.5,24.7,1.8,2,.9,6.4,1.2,9.7-3-.5-6.9.1-8.8-1.6-8.9-8.1-17.3-16.6-25.5-25.3-1.4-1.5-1.9-4.6-1.5-6.7.3-1.4,2.7-2.5,4.4-3.9Z"/>
  <path class="cls-8" d="M654.4,418.4c0,6.2.4,12.5-.2,18.6-.2,2.1-3.2,3.9-5,5.8-1.6-1.6-4.5-3.2-4.6-4.9-.4-13.3-.4-26.5,0-39.8,0-1.8,2.8-3.5,4.3-5.2,1.8,1.8,5,3.5,5.2,5.5.7,6.6.3,13.3.3,19.9Z"/>
  <path class="cls-43" d="M679.1,659.4c0,58.5,0,117,0,175.5,0,4.9-1.3,9.8-1.9,14.8-.2-58.3-.5-116.6-.7-174.8.4-5.1.8-10.1,1.2-15.2.5-.1,1-.2,1.5-.3Z"/>
  <path class="cls-39" d="M1220.5,442.3c-5,11.6-9.3,21.5-14.5,33.7-3.3-10.2,5.1-22.6-10.2-27.1,8.2-2.2,16.3-4.3,24.7-6.6Z"/>
  <path class="cls-4" d="M603.3,765.4v-49.2c8.6,11.8,7.8,44.2,0,49.2Z"/>
  <path class="cls-38" d="M1293.8,864.9c4.2,2.6,8.5,5.2,12.7,7.8-.1,1.6-.2,3.2-.3,4.8-5.1,3.3-10.4,11.1-15.1-.4.9-4.1,1.8-8.1,2.7-12.2Z"/>
  <path class="cls-47" d="M323.3,1173c15.5-.7,31.1-1.5,46.6-2,9.4-.3,18.9-.2,28.4-.2-2.1,1-4.3,2.9-6.4,2.9-22.9,0-45.7-.4-68.6-.7Z"/>
  <path class="cls-39" d="M1199.8,504.9c-3.1,8.2-6.2,16.3-9.2,24.5-1.5-.6-3.1-1.1-4.6-1.7,3-8.2,6.1-16.4,9.1-24.5,1.6.6,3.1,1.2,4.7,1.7Z"/>
  <path class="cls-25" d="M1164.2,409.9c1.1,9.7,2,17.6,3,25.8-9.9-6.3-11.2-14.3-3-25.8Z"/>
  <path class="cls-36" d="M375.5,934.6c3.2,3.5,7.3,6.2,7,7.9-.7,3-4,5.4-6.3,8.1-2.6-2.2-7-4.2-7.4-6.8-.4-2.3,3.7-5.3,6.7-9.2Z"/>
  <path class="cls-20" d="M1208.2,416.6c-6-6.1-11.9-12.1-17.9-18.2,1-1,1.9-1.9,2.9-2.9,6,6,12.1,12,18.1,18-1,1.1-2.1,2.1-3.1,3.2Z"/>
  <path class="cls-22" d="M1268.6,410.4c-6.3,5.6-12.7,11.3-19,16.9-.9-.8-1.7-1.6-2.6-2.4,5.7-6.2,11.3-12.4,17-18.7,1.5,1.4,3.1,2.7,4.6,4.1Z"/>
  <path class="cls-9" d="M1461.6,1160.5c-71.8,0-143.6.1-215.3.2,12-.7,24-2.1,36-2.1,47.1.2,83.6-21.5,114.7-54.7,22.7-24.3,37.2-53.8,46.7-84.8,8.3-27.2,10.8-56.1,15.8-84.3.7-4.1,1.6-8.1,2.4-12.1,0,78.6,0,157.2.1,235.8-.1.7-.2,1.3-.3,2Z"/>
  <path class="cls-53" d="M1409.4,837c18.3,3.2,28.7,15.9,37.2,30.9.2,2.3.5,4.5.7,6.8-4.4,2.7-8.7,7.2-13.3,7.6-9.1.6-12.2,4.2-12.4,13.1-.5,15.4,0,29.8,14.1,40.3,3.4,2.5,5.4,8.6,5.6,13.1.7,12.9,1,25.9-.2,38.8-.3,3.6-6,6.8-9.3,10.1-.4.4-1.6.1-2.4.1-34.9-.1-29.8,3.2-30.2-28.5,0-7.1-.8-14.3.3-21.3.7-5,2.6-11.2,6.1-14.1,16.8-13.7,15.4-30.9,11.4-49-1-5.8-2-11.6-2.9-17.3-3.2-7-5.7-14.4-9.7-20.9-4.3-7.1-2.5-9.5,5-9.6ZM1421.5,957.2c-5.1.2-10.2.5-15.3.7,1.5,5.1,2.4,10.6,4.8,15.2,1.6,3,5.5,4.7,8.4,7,4.6-4,10.2-7.3,13.5-12.3,1.9-2.8-.2-8.2-.4-12.4-3.6.6-7.3,1.2-10.9,1.7Z"/>
  <path class="cls-53" d="M1374,844.7c14.6.8,17.7,13.9,24.7,22.8.2,1.7.4,3.3.6,5,.2,7.4-3.7,10.2-10.8,10.1-11.6-.2-23.1-.1-34.7-.1.9-15.7,7.5-28.4,20.1-37.8Z"/>
  <path class="cls-53" d="M1306.2,877.5c.1-1.6.2-3.2.3-4.8,9.2-22.7,23.9-37.4,50.4-35.2-6.1,12.4-12.2,24.7-18.3,37.1-7.3,10.3-22,11.6-32.4,2.9Z"/>
  <path class="cls-33" d="M1338.6,874.6c6.1-12.4,12.2-24.7,18.3-37.1,5.7,2.4,11.4,4.8,17.1,7.3-12.6,9.4-19.2,22.1-20.1,37.8-6.4-.1-13.7,1.5-15.3-8Z"/>
  <path class="cls-38" d="M1399.4,872.6c-.2-1.7-.4-3.3-.6-5,5.1,0,10.2,0,15.3,0,1,5.8,2,11.6,2.9,17.3-8.7,0-15.9-2.3-17.6-12.3Z"/>
  <path class="cls-59" d="M694.4,792.3c.9-2.8,1.8-5.5,2.7-8.3,29.5,7.2,58.9,14.5,89.4,22,1.9-20.8,3.5-40.7,5.6-60.5,1-9.1-2.4-13.8-11.4-16-21.5-5.2-42.8-11.2-64.2-16.8-6.5-1.9-13.1-3.8-19.6-5.8.9-1.7,1.7-3.5,2.6-5.2,6.6.8,13.2,1.7,19.9,2.5,22.5,6,45.1,12,67.6,17.9,2.6-1.9,7-3.5,7.3-5.7,1.5-10.6,1.9-21.3,2.7-32,.8-7.7,1.6-15.4,2.3-23.1,1.5-7.1-.3-11.4-8.4-13-4.1-.8-7.7-4.5-11.6-6.9,6.8-.4,13.7-.8,21.6-1.3.5-5.4.3-11.3,1.8-16.7,1-3.6,4.7-6.5,7.1-9.6,2.7,12.7-6.7,28.8,10.4,37.6l-3.1,3.3c-10.8-2.3-9.8,5.1-9.5,11.8-.7,4.5-1.8,9.1-1.9,13.6-.4,15.6-.5,31.2-.8,46.8,5.7,1.8,11.5,3.6,17.2,5.4,29.2,7.6,58.4,15.2,87.6,22.8,7,.7,15.9,11.2,20.2-2.9,5.3-17.5,10-35.3,13.9-53.2.7-3.1-3.1-9.7-6-10.6-21.6-6.2-43.5-11.3-65.2-16.8-5.1-5.4-17.7-.2-18.1-12.5,6.7,1,13.5,2,20.2,3,21.7,5.8,43.3,11.6,65,17.4,5.6,3,9.5,2.2,11-4.7,1.5-6.9,3.1-13.7,4.7-20.6,3.3-10.9,6.7-21.8,10-32.7,1.7,2.7,3.4,5.3,5,8-1.9,8.9-3.7,17.8-5.6,26.7-1.7,5.5-3.2,11.2-5.3,16.6-3.4,8.7-.6,13,8.5,14.9,11,2.3,21.7,5.7,32.5,8.6,7.4,1.9,14.8,3.7,22.2,5.6.2,1.4.3,2.7.5,4.1-.2,1.2-.3,2.4-.5,3.7-8.3-1.6-16.5-3.2-24.8-4.9-14.2-4.1-28.4-8.2-43.6-12.5-6.5,24.5-12.5,46.8-18.8,70.5,16.1,4.1,30.5,7.8,44.9,11.5,7.6,3.4,15.1,6.8,22.7,10.2-1,1-1.9,1.9-2.9,2.9-5.7-1.1-11.4-2.1-17-3.2-13.6-3.8-27.2-7.4-40.8-11.3-6.8-2-10,.8-11.6,7.2-4.5,17.3-8.9,34.7-13.9,51.9-2,7,.4,9.9,6.9,11.5,12.1,2.8,24.2,6,36.3,9.1,6.9,3.2,13.7,6.4,20.6,9.6-1,1-2,2-3,3-5.7-1-11.4-2.1-17.1-3.1-12.3-3.4-24.8-6.4-36.9-10.4-9.2-3-12.5.3-14.6,9-4.1,17.3-9.2,34.3-13.9,51.5-1.9-1.9-3.9-3.7-5.8-5.6,4.2-16.6,8.3-33.2,12.5-49.7,1.6-6.3,2.4-11.8-6.6-12.3-31.1-8.3-62.1-16.6-93.2-24.8-3-.7-6.1-1.4-9.1-2.1-2.1-.9-4.2-1.9-6.3-2.8h-4.7c-29.2-7.6-58.4-15.1-87.7-22.6ZM799.5,810c30.3,8.1,60.6,16.1,90.9,24.2,6.2.5,14.5,8.5,17.9-2.1,6.5-20.4,11.3-41.2,17.2-63.3-6.9-1.6-12.4-2.8-17.9-4.1-29.4-8.2-58.7-16.4-88.1-24.6-5.5-1.3-11-2.6-18.5-4.3-2.1,24.1-4.1,46.7-5.8,69.3-.1,1.5,2.8,3.3,4.4,5Z"/>
  <path class="cls-40" d="M809.8,613.9c-2.5,3.2-6.1,6-7.1,9.6-1.6,5.4-1.3,11.3-1.8,16.7-7.9.5-14.7.9-21.6,1.3l-6.8.3c-2.7-8.6-15.1-13.3-27.2-10.5-10.3-2.9-20.6-5.7-30.9-8.6-2.3.5-4.7.9-7,1.4-2.5-2.7-4.5-6.7-7.5-7.7-7.4-2.3-10.7-5.9-10.4-14.1.6-18.6.2-37.3.2-56.6,2.9,0,4.9-.4,6.7,0,34.1,9,68.2,18.5,102.4,27.1,9.6,2.4,7.5,9.3,8.7,15.4.8,8.5,1.6,17,2.4,25.5Z"/>
  <path class="cls-52" d="M716.5,712.6c21.4,5.6,42.7,11.6,64.2,16.8,9,2.2,12.4,6.8,11.4,16-2.1,19.8-3.7,39.7-5.6,60.5-30.5-7.5-59.9-14.7-89.4-22-.1-.5-.3-1-.4-1.6l19.7-69.7Z"/>
  <path class="cls-15" d="M802.2,819.8c31.1,8.3,62.1,16.6,93.2,24.8-3.6,4-8.8,7.3-10.5,12-5.8,16.1-10.3,32.6-15.4,48.9-24.6-6.3-49.2-12.3-73.6-19.3-3.1-.9-6.1-6.6-6.8-10.5-.9-5.2.5-10.7.9-16.1,4.1-13.3,8.2-26.5,12.3-39.8Z"/>
  <path class="cls-42" d="M1022.8,709.8c.2-1.2.3-2.4.5-3.7,6.5.6,13.2.4,19.5,1.9,16.6,4,33.1,8.8,49.6,13.2,5.2,1.4,10.8,3.6,13.3-4.1,2.6-5.8,5.3-11.5,7.9-17.3,4.8-9.3,9.7-18.6,14.5-28,1.8,1.8,3.5,3.6,5.3,5.5-2.6,6.5-5.2,13-7.8,19.6-4.5,9.2-9.1,18.3-14.6,29.6,16,3.9,30.3,7.3,44.6,10.8,6.8,2.4,13.5,4.7,20.3,7.1-.9,1.8-1.8,3.6-2.7,5.4-5.8-1-11.5-2-17.3-3-6-1.7-11.9-3.6-18-5.1q-30-7.9-43.2,19.8c-6,12.6-11.5,25.3-17.8,39.3,22,5.8,41.6,11,61.3,16.1,1.7,2.7,3.4,5.3,5.1,8-3.4,0-6.8,0-10.2,0-17.7-4.9-35.3-10.1-53.1-14.6-2.7-.7-8,1.1-9.1,3.2-9.8,19.7-18.9,39.8-29.1,61.6,25.8,6.9,49.9,13.2,74,19.6,2.4.7,4.7,1.4,7.1,2.1-3.4,2.8-6.8,5.7-10.2,8.5-3.6-1.9-7-4.5-10.8-5.6-17.9-5.1-36.1-9.4-54-14.8-7.9-2.4-11.2.4-14.2,7.1-7.6,17-15.7,33.8-23.6,50.7-1.9-1.7-3.9-3.5-5.8-5.2,8.3-18.5,16.5-37.1,25.5-57.3-16.8-4.4-32-8.4-47.2-12.4-1.7-.9-3.3-1.8-5-2.7,1-1,2-2,3-3,3.2-.7,6.4-1.4,9.6-2.1,12.3,3.7,24.5,7.6,37,10.8,2.5.6,7.3-.8,8.3-2.6,9.9-19.9,19.2-40.1,29.6-62.4-21.6-5.7-40.8-10.7-59.9-15.7-1.7-.9-3.3-1.8-5-2.7,1-1,1.9-1.9,2.9-2.9,2.4-.9,4.8-1.7,7.2-2.6,16.8,4.8,33.6,9.8,50.5,14.2,2.9.7,8.5-.6,9.5-2.6,9.9-19.9,19.2-40.2,29.4-62.1-25.5-6.7-48.8-12.9-72-19-1.6-.9-3.3-1.8-4.9-2.6Z"/>
  <path class="cls-52" d="M694.4,792.3c29.2,7.5,58.4,15,87.7,22.6-5.8,20.9-11.6,41.7-17.5,62.6-21.8-5.6-43.7-11-65.3-17.2-3-.9-7.1-5.6-7.1-8.5.2-19.9,1.4-39.7,2.2-59.5Z"/>
  <path class="cls-50" d="M1010.3,942.7c7.9-16.9,16.1-33.7,23.6-50.7,3-6.7,6.3-9.5,14.2-7.1,17.8,5.4,36,9.7,54,14.8,3.8,1.1,7.2,3.7,10.8,5.6-6.1,12.5-11.4,25.4-18.5,37.3-12.4,20.8-12.9,20.7-36.4,14.3-16-4.4-31.8-9.4-47.7-14.1Z"/>
  <path class="cls-58" d="M809.8,613.9c-.8-8.5-1.6-17-2.4-25.5,3.3-2.7,6.6-5.3,12.1-9.8,16.6,4.6,36,10,55.4,15.4-1,6-1,12.5-3.3,18-5.3,12.7-3.2,21.1,11,24.6-.9,4.1-1.8,8.3-2.7,12.4l-5.2,13.1c-6.7-1-13.5-2-20.2-3-2.3.9-4.6,1.8-6.9,2.7-3.7-8.9-14.7-13-27.3-10.4-17.1-8.7-7.8-24.8-10.4-37.6Z"/>
  <path class="cls-58" d="M1176.1,744.3c-6.8-2.4-13.5-4.7-20.3-7.1,2.5-8.5,5.1-16.9,7.6-25.4,13.2,3.9,19.8-.6,21.2-14.7.6-6.3,4.5-12.3,6.9-18.4,18.8,4.9,37.7,9.8,58.2,15.1-12.3,19.7-23.4,37.7-34.8,55.5-1.1,1.7-4.2,2.1-6.3,3.1-10.8-2.7-21.6-5.4-32.4-8.1Z"/>
  <path class="cls-50" d="M882.6,636.7c-14.2-3.5-16.3-12-11-24.6,2.3-5.5,2.3-12,3.3-18,27.3,7.1,54.7,14.1,81.9,21.6,3.2.9,5.8,4,8.6,6-3.3,10.9-6.7,21.8-10,32.7-24.3-5.9-48.5-11.8-72.8-17.7Z"/>
  <path class="cls-56" d="M707.3,624.2c2.3-.5,4.7-.9,7-1.4,5.6,12.3,18.1,8.5,27.5,11.7,10.2,2.4,20.4,4.9,30.6,7.3l6.8-.3c3.8,2.4,7.4,6.1,11.6,6.9,8.1,1.6,9.8,5.9,8.4,13-5.3-.6-10.7-.7-15.9-2-16.5-4.1-33-8.4-49.4-13.1-7.1-2-10.5-.2-12.6,7.1-3.4,11.8-7.8,23.2,3.4,33.3-.9,4.2-1.9,8.3-2.8,12.5-.8,1.6-1.7,3.3-2.5,4.9-6.6-.8-13.2-1.7-19.9-2.5-3.1-1.6-6.3-3.2-9.4-4.9,0-25.1.2-50.1.2-75.2,5.7.8,11.4,1.7,17,2.5Z"/>
  <path class="cls-53" d="M1143.5,824.9c-1.7-2.7-3.4-5.3-5.1-8,5.9-23.4,11.8-46.7,17.7-70.1,5.8,1,11.5,2,17.3,3,9,2.6,18,5.2,27,7.8,2.1,1.3,4.1,2.5,7,4.3-12.3,19.6-23.7,39.5-37.1,57.9-2.7,3.7-13.1,1.8-20,2.5-2.3.9-4.5,1.8-6.8,2.7Z"/>
  <path class="cls-50" d="M1128.2,671.8c-4.8,9.3-9.7,18.6-14.5,28-3.2-1.7-6.3-4.1-9.8-5-21.9-6.1-43.9-11.9-65.9-17.9,2.5-12.4,4.9-24.9,7.4-37.3,25.4,6.7,50.8,13.6,76.3,20,7.5,1.9,9.7,5.3,6.6,12.2Z"/>
  <path class="cls-20" d="M895.3,912.2c4.7-17.2,9.8-34.2,13.9-51.5,2.1-8.7,5.4-12,14.6-9,12.1,4,24.6,7,36.9,10.4-2.1,2.9-5.2,5.5-6.1,8.7-5,17.9-9.5,36-14.2,54-15-4.2-30-8.4-45.1-12.6Z"/>
  <path class="cls-50" d="M982.7,867.8c15.2,4,30.5,8,47.2,12.4-9,20.2-17.3,38.8-25.5,57.3-11.4-1.7-22.8-3.3-34.3-5,4.1-16.4,8.6-32.7,12.3-49.2,1.1-4.9.2-10.3.3-15.5Z"/>
  <path class="cls-22" d="M1191.4,678.8c-2.4,6.1-6.3,12.1-6.9,18.4-1.4,14.1-8,18.6-21.2,14.7-6.7-2.4-13.5-4.7-20.2-7.3-5.9-2.3-11.6-5.1-17.4-7.6,2.6-6.5,5.2-13,7.8-19.6,4.2-11.3,11.7-12.4,22.3-8.6,11.6,4.1,23.7,6.8,35.6,10.1Z"/>
  <path class="cls-53" d="M982.7,867.8c0,5.2.8,10.6-.3,15.5-3.7,16.5-8.1,32.8-12.3,49.2-9.9-2.6-19.9-5.1-29.8-7.7,4.7-18,9.2-36.1,14.2-54,.9-3.2,4-5.8,6.1-8.7,5.7,1,11.4,2.1,17.1,3.1l5,2.7Z"/>
  <path class="cls-50" d="M964.9,656.4c1.9-8.9,3.7-17.8,5.6-26.7,2.3-6.5,6-9.2,13.3-7,13.1,4,26.5,7.4,39.7,11-12.9,6.5-9.3,20.2-13.4,30.6-.8.9-1.7,1.8-2.5,2.7-14.2-3.5-28.5-7-42.7-10.5Z"/>
  <path class="cls-56" d="M1143.5,824.9c2.3-.9,4.5-1.8,6.8-2.7,3.3,4,6.5,7.9,11,13.4-12,19.2-25.2,40.2-38.3,61.2-2.4-.7-4.7-1.4-7.1-2.1,5.8-23.3,11.6-46.6,17.4-69.8,3.4,0,6.8,0,10.2,0Z"/>
  <path class="cls-41" d="M716.5,712.6l-19.7,69.7c-1.8-3.7-4.8-7.2-5.2-11-1.2-9.9-1.2-19.9-1.8-29.9,0-11.5,0-23,0-34.4h7.1c6.5,1.8,13.1,3.7,19.6,5.6Z"/>
  <path class="cls-53" d="M1010,664.2c4.2-10.3.5-24.1,13.4-30.6,7.3,2,14.6,3.9,21.9,5.9-2.5,12.4-4.9,24.9-7.4,37.3,0,0-.2-.2-.2-.2-9.3-4.1-18.5-8.3-27.8-12.4Z"/>
  <path class="cls-20" d="M869.5,905.5c5-16.3,9.6-32.8,15.4-48.9,1.7-4.7,6.9-8,10.5-12,9,.4,8.2,5.9,6.6,12.2-4.3,16.5-8.4,33.2-12.5,49.7-6.6-.4-13.3-.7-19.9-1.1Z"/>
  <path class="cls-10" d="M764.7,877.4c5.8-20.9,11.6-41.7,17.5-62.6,1.6,0,3.1,0,4.7,0l2.8,20c-.1,3.7-.2,7.4-.3,11-2.4,3-6.3,5.7-6.9,9-1.6,8.4-1.8,17.2-2.7,27.5-6.1-2-10.6-3.5-15.1-5Z"/>
  <path class="cls-27" d="M789.3,845.9c.1-3.7.2-7.4.3-11,1.2-5.7,2.3-11.5,3.5-17.2,3,.7,6.1,1.4,9.1,2.1-4.1,13.3-8.2,26.5-12.3,39.8-.2-4.5-.4-9.1-.6-13.6Z"/>
  <path class="cls-2" d="M1200.3,757.5c-9-2.6-18-5.2-27-7.8.9-1.8,1.8-3.6,2.7-5.4,10.8,2.7,21.6,5.4,32.4,8.1-2.7,1.7-5.4,3.4-8.1,5.1Z"/>
  <path class="cls-43" d="M690.2,621.7c0,25.1-.2,50.1-.2,75.2-1-12.9-2.9-25.9-2.9-38.8,0-12.1,2-24.2,3.1-36.3Z"/>
  <path class="cls-34" d="M689.8,707c0,11.5,0,23,0,34.4-.5,9.9-.9,19.8-1.4,29.6-.9,0-1.8,0-2.7-.1,1.4-21.3,2.7-42.6,4.1-64Z"/>
  <path class="cls-24" d="M679.1,659.4c-.5,0-1,.2-1.5.3,0-19.8,0-39.6,0-59.4.5,0,1,0,1.5,0v59.2Z"/>
  <path class="cls-32" d="M1391.6,320.7c2.2-2.5,3.9-6.5,6.6-7.3,6.3-1.9,14.1-4.7,19.2-2.4,4.4,2,8.7,10.8,8,15.9-.7,5-7.6,12.6-12.1,12.8-6.1.4-13-4.6-18.5-8.6-2.3-1.7-2.1-6.9-3.1-10.5,0,0,0,.1,0,.1ZM1423.7,324c-7-4-11.1-8.3-14.2-7.6-3.6.7-6.2,5.8-9.3,9.1,3.3,3.1,6.5,8.2,10,8.5,3.2.3,6.9-4.8,13.5-10Z"/>
  <path class="cls-35" d="M1383.8,306.2c.3,9.3-6.7,16.6-16.3,16.8-8.9.2-17.3-7.4-16.9-16.3.4-9.6,6.1-15.3,15.7-16,9.5-.7,17.1,6.3,17.4,15.5ZM1367.2,320.1c4.5-6.7,9.1-10.5,8.6-13.6-.5-3.6-5.5-6.6-8.5-9.8-3.2,3.1-8.5,5.9-9.1,9.5-.5,3.1,4.3,7.1,9,14Z"/>
  <path class="cls-32" d="M1391.7,320.6c-5.2,9.6-10.3,19.2-15.5,28.7-1.6-.7-3.1-1.5-4.7-2.2,9.4-21.9,18.9-43.8,28.3-65.7,1.6.6,3.2,1.2,4.8,1.9-4.4,12.5-8.7,25-13.1,37.5,0,0,0-.1,0-.1Z"/>
  <path class="cls-6" d="M1322.6,371.7c-7.3,4.3-11.6,8.9-14.8,8.2-4.1-.9-7.2-6-10.7-9.2,3.3-3.1,6.6-8.6,9.8-8.5,4.1,0,8.2,4.7,15.7,9.6Z"/>
  <path class="cls-58" d="M1565.8,955.3c-8.7,0-17.5,0-26.2,0-7.9,0-10.3-3.6-8.2-11.2,3.8-13.3,20.2-25.2,35.4-25.2,15.2,0,30.6,11.1,34.3,24.5,1.9,7.1.3,11.6-7.8,11.7-9.2.1-18.3,0-27.5,0,0,0,0,0,0,0Z"/>
  <path class="cls-48" d="M1461.6,1160.5c.1-.7.2-1.3.3-2,3.9-3.2,7.5-6.9,11.8-9.6,5-3.1,10.5-5.4,15.8-8,6.6,5.9,13.3,11.8,19.9,17.7.1.7.2,1.3.4,2-16.1,0-32.1,0-48.2-.1Z"/>
  <path class="cls-19" d="M1068.2,601.6c17.5-21,35.8-40.9,62.8-49.9,4.5,1.6,9,3.1,15,5.2-18.1,31-47.1,39.4-77.8,44.7Z"/>
  <path class="cls-55" d="M1068.2,601.6c30.8-5.3,59.7-13.7,77.8-44.7-6-2.1-10.5-3.6-15-5.2,4-.7,8-1.9,12.1-2.1,15.9-1.1,19.9,4.1,15.4,19.4-10.9,7.6-21.7,15.3-32.6,22.9-21.5,7.6-42.9,15.2-64.4,22.8-1.3-.3-2.6-.5-4-.8,3.5-4.1,7.1-8.2,10.7-12.4Z"/>
  <path class="cls-16" d="M977.5,504.3c15.4,7.2,23.2,20.9,28.8,35.8,4.5,11.9,7.5,24.4,11.2,36.7-1.4,2.3-2.8,4.6-5.2,8.4-12-17.5-24.7-32.7-33.4-50-4.3-8.4-1.2-20.5-1.4-30.9Z"/>
  <path class="cls-55" d="M977.5,504.3c.3,10.4-2.8,22.5,1.4,30.9,8.7,17.2,21.4,32.5,33.4,50,2.4-3.9,3.8-6.2,5.2-8.4,2.3,9.9,4.5,19.8,6.8,29.7-1.1,0-2.2,0-3.3,0-15.3-18.2-30.6-36.4-45.9-54.6-5.1-9.3-10.2-18.6-15.2-27.9,0-2.5-.2-5-.3-7.4-.3-14.7,3.6-17.4,17.9-12.2Z"/>
  <path class="cls-41" d="M992.1,1144.2c-12.4,0-23.1-10.6-23.2-23-.1-12.7,11.1-23.5,24.2-23.2,12.6.3,22.6,10.9,22.3,23.6-.3,12.8-10.6,22.7-23.3,22.7ZM990.9,1133.6c10,.3,15.5-4.6,15.6-13.6.1-8.2-5.5-13.3-13.7-13.3-9.3-.1-15.1,5.2-15,14.7,0,8.4,4.5,13.3,13.1,12.2Z"/>
  <path class="cls-10" d="M675.5,1012.9c12.3.2,22.9,11.3,22.8,23.6-.2,12-11.5,23.1-23.5,23.1-12.8,0-23.6-11.5-23.1-24.4.6-12.8,11-22.5,23.8-22.2ZM670.4,1051.2c13.2-1.2,19-5.9,18.9-15.2,0-8.7-5.3-14-14-14.2-9.3-.2-15.9,5.2-14.4,14.4.9,5.9,6.8,11,9.5,15Z"/>
  <path class="cls-6" d="M1421.5,957.2c3.6-.6,7.3-1.2,10.9-1.7.3,4.2,2.3,9.6.4,12.4-3.2,4.9-8.8,8.3-13.5,12.3.7-7.6,1.4-15.3,2.1-22.9Z"/>
  <path class="cls-22" d="M1421.5,957.2c-.7,7.6-1.4,15.3-2.1,22.9-2.9-2.3-6.8-4-8.4-7-2.4-4.6-3.3-10.1-4.8-15.2,5.1-.2,10.2-.5,15.3-.7Z"/>
  <path class="cls-52" d="M890.4,834.2c-30.3-8.1-60.6-16.1-90.9-24.2,2.6-2.9,6.4-5.5,7.4-8.9,5.1-17.1,9.6-34.4,13.9-51.7.7-2.8-.8-6.2-1.3-9.4,29.4,8.2,58.7,16.4,88.1,24.6-5.7,23.2-11.4,46.4-17.2,69.5Z"/>
  <path class="cls-20" d="M960.1,852.5c-12.1-3-24.2-6.2-36.3-9.1-6.5-1.5-9-4.4-6.9-11.5,5-17.2,9.4-34.5,13.9-51.9,1.6-6.4,4.8-9.2,11.6-7.2,13.6,3.9,27.2,7.6,40.8,11.3-2.7,2.8-6.8,5.2-7.7,8.5-5.5,19.8-10.3,39.8-15.4,59.8Z"/>
  <path class="cls-50" d="M980.5,774.3c-14.4-3.7-28.8-7.4-44.9-11.5,6.3-23.7,12.3-46,18.8-70.5,15.3,4.4,29.5,8.5,43.6,12.5-5.9,23.1-11.7,46.3-17.6,69.4Z"/>
  <path class="cls-15" d="M724.7,686.8c-11.2-10.1-6.8-21.6-3.4-33.3,2.1-7.3,5.5-9.1,12.6-7.1,16.4,4.7,32.9,9,49.4,13.1,5.1,1.3,10.6,1.4,15.9,2-.8,7.7-1.6,15.4-2.3,23.1-1.3,3.8-2.6,7.7-4.3,12.8-18.7-4.8-37-9.9-55.4-13.9-3.7-.8-8.3,2.2-12.5,3.4Z"/>
  <path class="cls-53" d="M980.5,774.3c5.9-23.1,11.7-46.3,17.6-69.4,8.3,1.6,16.5,3.2,24.8,4.9,1.6.9,3.3,1.8,4.9,2.6-5.8,23.2-11.6,46.4-17.4,69.6-2.4.9-4.8,1.7-7.2,2.6-7.6-3.4-15.1-6.8-22.7-10.2Z"/>
  <path class="cls-53" d="M960.1,852.5c5-19.9,9.8-39.9,15.4-59.8.9-3.3,5.1-5.7,7.7-8.5,5.7,1.1,11.4,2.1,17,3.2,1.7.9,3.3,1.8,5,2.7-.4,4.4-.4,9-1.4,13.3-4.3,18.9-9,37.8-13.5,56.6-3.2.7-6.4,1.4-9.6,2.1-6.9-3.2-13.7-6.4-20.6-9.6Z"/>
  <path class="cls-9" d="M882.6,636.7c24.3,5.9,48.5,11.8,72.8,17.7-1.6,6.9-3.2,13.7-4.7,20.6-1.5,6.8-5.4,7.6-11,4.7,1.7-.7,3.3-1.4,7.9-3.3-19.1-5.4-35.2-10.2-51.4-14.6-7.3-2-14.9-3.1-16.3-12.6.9-4.1,1.8-8.3,2.7-12.4Z"/>
  <path class="cls-56" d="M847.5,661.8c2.3-.9,4.6-1.8,6.9-2.7.4,12.3,12.9,7.1,18.1,12.5-1.7,3.5-3.4,7-5.1,10.5-31.2-8.3-25.4-8.8-33.2,18.9-.6,2-1.4,3.9-2.1,5.8-6.6-.8-13.2-1.6-19.9-2.4,1.6-7.3,2.6-14.8,4.9-21.9,3.1-9.6,1.5-15.5-9.7-16-.3-6.7-1.3-14,9.5-11.8,10.1,2.4,20.3,4.7,30.4,7.1Z"/>
  <path class="cls-20" d="M867.4,682.1c1.7-3.5,3.4-7,5.1-10.5,21.8,5.5,43.7,10.6,65.2,16.8,2.9.8,6.7,7.5,6,10.6-3.9,17.9-8.6,35.6-13.9,53.2-4.3,14.2-13.2,3.6-20.2,2.9,1-2.7,2-5.3,2.9-8,.9-2.5,1.7-4.9,2.6-7.4,12.9-5,17.8-14.9,19.9-28.2,1.3-8.7-.9-12-8.9-13.9-19.7-4.9-39.2-10.3-58.8-15.4Z"/>
  <path class="cls-13" d="M724.7,686.8c4.2-1.2,8.8-4.2,12.5-3.4,18.5,4.1,36.7,9.1,55.4,13.9,1.7-5.2,3-9,4.3-12.8-.8,10.7-1.2,21.4-2.7,32-.3,2.2-4.8,3.8-7.3,5.7.8-2.3,2-4.5,2.2-6.8,0-.7-2.5-2.1-4.1-2.4-21.1-4.6-42.1-9.1-63.2-13.7.9-4.2,1.9-8.3,2.8-12.5Z"/>
  <path class="cls-31" d="M964.9,656.4c14.2,3.5,28.5,7,42.7,10.5-1.6,7.5-3.2,15-4.7,22.4-.7,2.4-1.5,4.7-2.2,7.1-10.8-2.9-21.6-6.2-32.5-8.6-9.1-1.9-11.9-6.2-8.5-14.9,2.1-5.4,3.5-11,5.3-16.6Z"/>
  <path class="cls-14" d="M890.4,834.2c5.7-23.2,11.4-46.4,17.2-69.5,5.5,1.3,11,2.5,17.9,4.1-5.9,22.1-10.7,43-17.2,63.3-3.4,10.7-11.7,2.6-17.9,2.1Z"/>
  <path class="cls-56" d="M819.5,740.1c.5,3.1,2,6.5,1.3,9.4-4.3,17.3-8.8,34.6-13.9,51.7-1,3.4-4.9,6-7.4,8.9-1.5-1.7-4.5-3.4-4.4-5,1.6-22.6,3.7-45.1,5.8-69.3,7.5,1.8,13,3,18.5,4.3Z"/>
  <path class="cls-52" d="M912.6,747.1c-1,2.7-2,5.3-2.9,8-29.2-7.6-58.4-15.2-87.6-22.8,1.7-2.6,3.4-5.1,5-7.7.9-1.7,1.8-3.4,2.6-5.2,2.3,2.5,4.3,6.6,7.1,7.4,25.1,7.1,50.5,13.6,75.7,20.3Z"/>
  <path class="cls-33" d="M721.8,699.3c21.1,4.5,42.2,9,63.2,13.7,1.5.3,4.1,1.7,4.1,2.4-.2,2.3-1.4,4.5-2.2,6.8-22.5-6-45.1-12-67.6-17.9.8-1.6,1.7-3.3,2.5-4.9Z"/>
  <path class="cls-57" d="M1105.8,717.1c-2.5,7.7-8.1,5.5-13.3,4.1-16.5-4.4-33-9.2-49.6-13.2-6.3-1.5-13-1.3-19.5-1.9-.2-1.4-.3-2.7-.5-4.1,3.3-1.6,6.6-3.3,9.9-4.9.9-2.6,1.9-5.2,2.8-7.8,2.9,4.1,5,10.7,8.7,11.8,20.3,6.1,41,10.8,61.6,16Z"/>
  <path class="cls-33" d="M807.6,666.5c11.1.6,12.8,6.4,9.7,16-2.3,7.1-3.3,14.6-4.9,21.9-1.6,5.1-3.2,10.1-4.8,15.2-.9,2.4-1.8,4.9-2.6,7.3.2-15.6.3-31.2.8-46.8.1-4.6,1.3-9.1,1.9-13.6Z"/>
  <path class="cls-14" d="M879.9,649.1c1.3,9.5,8.9,10.6,16.3,12.6,16.2,4.4,32.4,9.2,51.4,14.6-4.5,1.9-6.2,2.6-7.9,3.3-21.7-5.8-43.3-11.6-65-17.4,1.7-4.4,3.4-8.7,5.2-13.1Z"/>
  <path class="cls-12" d="M1032.6,697.1c-3.3,1.6-6.6,3.3-9.8,4.9-7.4-1.9-14.8-3.7-22.2-5.6.7-2.4,1.5-4.7,2.2-7.1,9.9,2.6,19.9,5.2,29.8,7.8Z"/>
  <path class="cls-5" d="M847.5,661.8c-10.1-2.4-20.3-4.7-30.4-7.1,1-1.1,2.1-2.2,3.1-3.3,12.7-2.7,23.6,1.5,27.3,10.4Z"/>
  <path class="cls-45" d="M804.8,726.9c.9-2.4,1.8-4.9,2.6-7.3,6.5,1.7,13.1,3.3,19.6,5-1.7,2.6-3.3,5.1-5,7.7-5.7-1.8-11.5-3.6-17.2-5.4Z"/>
  <path class="cls-51" d="M793.1,817.7c-1.2,5.7-2.3,11.5-3.5,17.2l-2.8-20c2.1.9,4.2,1.9,6.3,2.8Z"/>
  <path class="cls-60" d="M772.4,641.8c-10.2-2.4-20.4-4.9-30.6-7.3,1.1-1.1,2.3-2.1,3.4-3.2,12.1-2.8,24.5,1.9,27.2,10.5Z"/>
  <path class="cls-17" d="M745.2,631.3c-1.1,1.1-2.3,2.1-3.4,3.2-9.5-3.2-21.9.6-27.5-11.7,10.3,2.9,20.6,5.7,30.9,8.6Z"/>
  <path class="cls-20" d="M1133.3,824.8c-5.8,23.3-11.6,46.6-17.4,69.8-24.1-6.4-48.1-12.8-74-19.6,10.2-21.8,19.3-41.9,29.1-61.6,1.1-2.1,6.4-3.9,9.1-3.2,17.8,4.5,35.4,9.6,53.1,14.6Z"/>
  <path class="cls-20" d="M1010.3,782c5.8-23.2,11.6-46.4,17.4-69.6,23.3,6.1,46.5,12.3,72,19-10.2,21.9-19.5,42.2-29.4,62.1-1,2-6.7,3.4-9.5,2.6-16.9-4.3-33.7-9.4-50.5-14.2Z"/>
  <path class="cls-20" d="M1156.1,746.8c-5.9,23.4-11.8,46.7-17.7,70.1-19.7-5.2-39.4-10.4-61.3-16.1,6.3-14,11.9-26.7,17.8-39.3q13.1-27.6,43.2-19.8c6,1.6,12,3.4,18,5.1Z"/>
  <path class="cls-50" d="M990.3,860.1c4.5-18.9,9.2-37.7,13.5-56.6,1-4.3,1-8.9,1.4-13.3,19.2,5,38.3,10,59.9,15.7-10.4,22.2-19.8,42.4-29.6,62.4-.9,1.9-5.8,3.3-8.3,2.6-12.4-3.2-24.7-7.1-37-10.8Z"/>
  <path class="cls-11" d="M1105.8,717.1c-20.6-5.2-41.3-9.9-61.6-16-3.8-1.1-5.9-7.7-8.7-11.8.8-4.2,1.6-8.4,2.4-12.7,0,0,.2.2.2.2,22,5.9,44,11.7,65.9,17.9,3.5,1,6.5,3.3,9.8,5-2.6,5.8-5.3,11.5-7.9,17.3Z"/>
  <path class="cls-31" d="M1125.7,696.8c5.8,2.6,11.5,5.3,17.4,7.6,6.6,2.6,13.4,4.9,20.2,7.3-2.5,8.5-5.1,16.9-7.6,25.4-14.3-3.5-28.6-6.9-44.6-10.8,5.6-11.2,10.1-20.4,14.6-29.6Z"/>
  <path class="cls-46" d="M1037.8,676.7c-.8,4.2-1.6,8.4-2.4,12.7-.9,2.6-1.9,5.2-2.8,7.8-9.9-2.6-19.9-5.2-29.8-7.8,1.6-7.5,3.2-15,4.7-22.4.8-.9,1.7-1.8,2.5-2.7,9.3,4.1,18.5,8.3,27.8,12.4Z"/>
  <path class="cls-20" d="M1423.7,324c-6.6,5.2-10.3,10.2-13.5,10-3.6-.3-6.7-5.5-10-8.5,3-3.2,5.7-8.3,9.3-9.1,3.1-.6,7.3,3.6,14.2,7.6Z"/>
  <path class="cls-22" d="M1367.2,320.1c-4.7-6.9-9.5-10.9-9-14,.6-3.6,5.8-6.4,9.1-9.5,3,3.3,8,6.2,8.5,9.8.5,3.1-4.1,6.9-8.6,13.6Z"/>
  <path class="cls-49" d="M990.9,1133.6c-8.6,1.1-13-3.8-13.1-12.2,0-9.5,5.7-14.8,15-14.7,8.2,0,13.8,5.1,13.7,13.3-.1,9-5.7,13.9-15.6,13.6ZM1002.3,1123.3c-4.4-4.1-6.6-7.6-9.5-8.4-1.7-.4-4.6,3.4-6.9,5.3,2.2,2.5,4,6,6.8,7.2,1.8.7,5-2,9.6-4.1Z"/>
  <path class="cls-2" d="M670.4,1051.2c-2.7-4-8.6-9.1-9.5-15-1.5-9.2,5.1-14.6,14.4-14.4,8.7.2,14,5.6,14,14.2,0,9.4-5.8,14-18.9,15.2Z"/>
  <path class="cls-52" d="M867.4,682.1c19.6,5.2,39.1,10.6,58.8,15.4,8,2,10.2,5.3,8.9,13.9-2,13.3-7,23.2-19.9,28.2-5-4.2-9.4-10.5-15.2-12.3-22.3-6.7-45-12-67.5-17.9l-.3-2.7c.7-1.9,1.5-3.8,2.1-5.8,7.8-27.8,2-27.3,33.2-18.9Z"/>
  <path class="cls-7" d="M832.1,706.9c.1.9.2,1.8.3,2.7-.9,3.3-1.8,6.6-2.7,9.9-.9,1.7-1.8,3.4-2.6,5.2-6.5-1.7-13.1-3.3-19.6-5,1.6-5.1,3.2-10.1,4.8-15.2,6.6.8,13.2,1.6,19.9,2.4Z"/>
  <path class="cls-30" d="M829.7,719.4c.9-3.3,1.8-6.6,2.7-9.9,22.5,5.8,45.3,11.1,67.5,17.9,5.8,1.7,10.2,8.1,15.2,12.3-.9,2.5-1.7,4.9-2.6,7.4-25.3-6.7-50.6-13.2-75.7-20.3-2.8-.8-4.8-4.8-7.1-7.4Z"/>
  <path class="cls-7" d="M1002.3,1123.3c-4.7,2.1-7.9,4.9-9.6,4.1-2.8-1.2-4.6-4.7-6.8-7.2,2.3-1.9,5.2-5.8,6.9-5.3,2.9.7,5.1,4.2,9.5,8.4Z"/>
</svg>