<?xml version="1.0" encoding="iso-8859-1"?>
<!-- Uploaded to: SVG Repo, www.svgrepo.com, Generator: SVG Repo Mixer Tools -->
<svg fill="#000000" height="800px" width="800px" version="1.1" id="Layer_1" xmlns="http://www.w3.org/2000/svg" xmlns:xlink="http://www.w3.org/1999/xlink" 
	 viewBox="0 0 512 512" xml:space="preserve">
<g>
	<g>
		<g>
			<path d="M227.392,237.141c-8.064,8.064-12.501,18.773-12.501,30.165c0,11.413,4.437,22.123,12.501,30.165
				c8.043,8.064,18.773,12.501,30.165,12.501c11.392,0,22.123-4.437,30.165-12.501l15.083-15.083
				c8.064-8.043,12.501-18.773,12.501-30.165s-4.437-22.123-12.501-30.165c-16.085-16.128-44.203-16.128-60.331,0L227.392,237.141z
				 M272.64,230.891c5.696,0,11.051,2.219,15.083,6.251c4.032,4.032,6.251,9.387,6.251,15.083s-2.219,11.051-6.251,15.083
				l-15.083,15.083c-8.064,8.064-22.101,8.064-30.165,0c-4.032-4.032-6.251-9.387-6.251-15.083c0-5.696,2.219-11.051,6.251-15.083
				l15.083-15.083C261.589,233.109,266.944,230.891,272.64,230.891z"/>
			<path d="M250.027,169.259c-4.16-4.16-10.923-4.16-15.083,0l-22.635,22.635l-30.165-30.165l22.613-22.613
				c4.16-4.16,4.16-10.923,0-15.083c-4.16-4.16-10.923-4.16-15.083,0l-60.331,60.331c-4.16,4.16-4.16,10.923,0,15.083
				c2.091,2.069,4.821,3.115,7.552,3.115c2.709,0,5.44-1.045,7.531-3.115l22.613-22.613l30.165,30.165l-22.613,22.613
				c-4.16,4.16-4.16,10.923,0,15.083c2.091,2.069,4.821,3.115,7.552,3.115c2.731,0,5.44-1.045,7.531-3.115l60.352-60.352
				C254.187,180.181,254.187,173.419,250.027,169.259z"/>
			<path d="M432.939,118.528c-6.72-6.4-13.461-12.821-20.053-19.413c-6.635-6.613-13.099-13.397-19.52-20.139
				C356.373,40.149,318.101,0,256,0C114.837,0,0,114.837,0,256s114.837,256,256,256s256-114.837,256-256
				C512,193.792,471.808,155.541,432.939,118.528z M377.92,93.696c6.528,6.869,13.12,13.781,19.861,20.501
				c6.72,6.72,13.589,13.269,20.437,19.776c20.864,19.861,40.853,39.232,54.592,61.632c-6.421-2.027-13.163-3.541-20.075-4.736
				c-0.085-0.021-0.171-0.021-0.256-0.043c-2.667-0.469-5.312-0.939-7.979-1.365c-26.816-4.352-57.237-9.301-84.949-37.013
				c-27.712-27.712-32.661-58.112-37.013-84.949c-1.579-9.643-3.307-19.307-6.144-28.267
				C338.752,52.971,358.101,72.896,377.92,93.696z M301.483,70.912c4.629,28.523,10.389,64.021,42.987,96.619
				c32.597,32.597,68.096,38.357,96.619,42.987c0.427,0.064,0.768,0.128,1.195,0.213C445.867,225.515,448,240.661,448,256
				c0,105.856-86.144,192-192,192S64,361.856,64,256S150.144,64,256,64c15.339,0,30.507,2.133,45.291,5.717
				C301.355,70.144,301.419,70.485,301.483,70.912z M256,490.667c-129.387,0-234.667-105.28-234.667-234.667
				S126.613,21.333,256,21.333c5.077,0,9.813,0.597,14.549,1.216c15.851,2.752,22.315,10.731,26.197,24.491
				c-13.419-2.603-26.987-4.373-40.747-4.373C138.368,42.667,42.667,138.368,42.667,256S138.368,469.333,256,469.333
				S469.333,373.632,469.333,256c0-13.76-1.792-27.328-4.373-40.725c13.781,3.861,21.76,10.347,24.491,26.197
				c0.619,4.715,1.216,9.451,1.216,14.528C490.667,385.387,385.387,490.667,256,490.667z"/>
			<path d="M348.053,297.493l-52.8,52.8c-4.16,4.16-4.16,10.923,0,15.083c2.091,2.069,4.821,3.115,7.552,3.115
				c2.731,0,5.461-1.045,7.531-3.115l52.8-52.8l15.083,15.083c2.091,2.069,4.821,3.115,7.552,3.115s5.461-1.024,7.531-3.115
				c4.16-4.16,4.16-10.923,0-15.083l-22.592-22.613l-0.021-0.021l-0.021-0.021l-22.613-22.613c-4.16-4.16-10.923-4.16-15.083,0
				c-4.16,4.16-4.16,10.923,0,15.083L348.053,297.493z"/>
		</g>
	</g>
</g>
</svg>